P2
# anim0000.pgm
40 40
255
229 217 203 188 172 156 143 131 123 118 117 120 127 137 150 165 181 197 211 224 234 241 244 244 239 230 219 205 190 174 158 144 133 124 118 117 120 126 136 148 
210 198 184 169 153 138 124 112 104 99 98 101 108 118 131 146 162 178 192 205 216 222 225 225 220 212 200 186 171 155 140 125 114 105 100 98 101 107 117 130 
185 173 159 144 128 112 99 87 79 74 73 76 83 93 106 121 137 153 167 180 190 197 200 200 195 186 175 161 146 130 114 100 89 80 74 73 76 82 92 104 
158 146 132 117 101 86 72 60 52 47 46 49 56 67 79 94 110 126 141 153 164 170 174 173 168 160 148 134 119 103 88 74 62 53 48 46 49 55 65 78 
134 123 109 93 77 62 48 37 28 23 23 26 33 43 56 70 86 102 117 130 140 147 150 149 144 136 124 110 95 79 64 50 38 29 24 22 25 31 41 54 
118 106 92 77 61 45 31 20 12 7 6 9 16 26 39 54 70 85 100 113 123 130 133 132 128 119 108 94 79 63 47 33 21 13 7 6 8 15 25 37 
112 100 86 70 54 39 25 14 5 1 0 3 10 20 33 47 63 79 94 107 117 124 127 126 121 113 101 88 72 56 41 27 15 6 1 0 2 9 18 31 
117 105 91 75 59 44 30 19 10 6 5 8 15 25 38 53 68 84 99 112 122 129 132 131 126 118 106 93 77 61 46 32 20 11 6 5 7 14 23 36 
132 120 106 91 75 59 46 34 26 21 20 23 30 40 53 68 84 100 114 127 137 144 147 146 142 133 122 108 93 77 61 47 35 27 21 20 23 29 39 51 
155 143 129 114 98 83 69 57 49 44 43 46 53 63 76 91 107 123 137 150 161 167 170 170 165 156 145 131 116 100 85 70 59 50 45 43 46 52 62 74 
182 170 156 141 125 109 95 84 76 71 70 73 80 90 103 118 134 149 164 177 187 194 197 196 192 183 172 158 143 127 111 97 85 77 71 70 72 79 89 101 
207 196 182 166 150 135 121 110 101 96 96 99 106 116 129 143 159 175 190 203 213 220 223 222 217 209 197 184 168 152 137 123 111 102 97 95 98 104 114 127 
227 215 201 186 170 155 141 129 121 116 115 119 125 136 148 163 179 195 210 222 233 240 243 242 237 229 217 203 188 172 157 143 131 122 117 115 118 124 134 147 
238 226 212 196 181 165 151 140 132 127 126 129 136 146 159 174 190 205 220 233 243 250 253 252 248 239 228 214 199 183 167 153 141 133 127 126 128 135 145 157 
237 225 211 196 180 165 151 139 131 126 125 129 135 146 158 173 189 205 220 232 243 250 253 252 247 239 227 213 198 182 167 153 141 132 127 125 128 134 144 157 
226 214 200 184 168 153 139 128 119 115 114 117 124 134 147 162 177 193 208 221 231 238 241 240 235 227 216 202 186 171 155 141 129 120 115 114 116 123 132 145 
205 193 179 164 148 133 119 107 99 94 93 96 103 113 126 141 157 173 187 200 211 217 220 220 215 206 195 181 166 150 135 120 109 100 95 93 96 102 112 124 
179 167 153 138 122 107 93 81 73 68 67 70 77 88 100 115 131 147 162 174 185 191 195 194 189 181 169 155 140 124 109 95 83 74 69 67 70 76 86 99 
153 141 127 111 95 80 66 55 46 42 41 44 51 61 74 89 104 120 135 148 158 165 168 167 162 154 143 129 113 98 82 68 56 47 42 41 43 50 59 72 
130 118 104 89 73 58 44 32 24 19 18 21 28 38 51 66 82 98 112 125 135 142 145 145 140 131 120 106 91 75 59 45 34 25 20 18 21 27 37 49 
116 104 90 74 58 43 29 18 9 5 4 7 14 24 37 52 67 83 98 111 121 128 131 130 125 117 105 92 76 60 45 31 19 10 5 4 6 13 22 35 
112 100 86 70 54 39 25 14 5 1 0 3 10 20 33 48 63 79 94 107 117 124 127 126 121 113 102 88 72 56 41 27 15 6 1 0 2 9 18 31 
119 107 93 78 62 46 33 21 13 8 7 10 17 27 40 55 71 87 101 114 124 131 134 134 129 120 109 95 80 64 48 34 23 14 8 7 10 16 26 38 
136 125 111 95 79 64 50 39 30 25 25 28 35 45 58 72 88 104 119 132 142 149 152 151 146 138 126 113 97 81 66 52 40 31 26 25 27 33 43 56 
161 149 135 119 104 88 74 63 55 50 49 52 59 69 82 97 113 128 143 156 166 173 176 175 170 162 151 137 122 106 90 76 64 55 50 49 51 58 68 80 
188 176 162 146 130 115 101 90 81 77 76 79 86 96 109 124 139 155 170 183 193 200 203 202 197 189 178 164 148 133 117 103 91 82 77 76 78 85 94 107 
212 201 186 171 155 140 126 114 106 101 100 104 110 121 134 148 164 180 195 208 218 225 228 227 222 214 202 188 173 157 142 128 116 107 102 100 103 109 119 132 
230 219 205 189 173 158 144 133 124 119 119 122 129 139 152 166 182 198 213 226 236 243 246 245 240 232 220 206 191 175 160 146 134 125 120 118 121 127 137 150 
239 227 213 197 181 166 152 141 132 128 127 130 137 147 160 175 190 206 221 234 244 251 254 253 248 240 229 215 199 184 168 154 142 133 128 127 129 136 145 158 
236 224 210 194 178 163 149 138 129 125 124 127 134 144 157 172 187 203 218 231 241 248 251 250 245 237 226 212 196 181 165 151 139 130 125 124 126 133 142 155 
222 210 196 181 165 149 135 124 116 111 110 113 120 130 143 158 174 189 204 217 227 234 237 236 232 223 212 198 183 167 151 137 125 117 111 110 113 119 129 141 
200 188 174 158 143 127 113 102 94 89 88 91 98 108 121 136 152 167 182 195 205 212 215 214 210 201 190 176 161 145 129 115 103 95 89 88 90 97 107 119 
173 162 148 132 116 101 87 76 67 62 62 65 71 82 95 109 125 141 156 169 179 186 189 188 183 175 163 149 134 118 103 89 77 68 63 61 64 70 80 93 
147 135 121 106 90 75 61 49 41 36 35 39 45 56 68 83 99 115 130 142 153 160 163 162 157 149 137 123 108 92 77 63 51 42 37 35 38 44 54 67 
126 114 100 85 69 54 40 28 20 15 14 17 24 34 47 62 78 94 108 121 132 138 141 141 136 127 116 102 87 71 56 41 30 21 16 14 17 23 33 45 
114 102 88 72 57 41 27 16 8 3 2 5 12 22 35 50 66 81 96 109 119 126 129 128 123 115 104 90 74 59 43 29 17 8 3 2 4 11 21 33 
112 100 86 71 55 40 26 14 6 1 0 4 10 21 33 48 64 80 95 108 118 125 128 127 122 114 102 88 73 57 42 28 16 7 2 0 3 9 19 32 
122 110 96 81 65 49 36 24 16 11 10 13 20 30 43 58 74 90 104 117 127 134 137 137 132 123 112 98 83 67 51 37 26 17 11 10 13 19 29 41 
141 129 115 100 84 69 55 43 35 30 29 33 39 50 62 77 93 109 124 136 147 154 157 156 151 143 131 117 102 86 71 57 45 36 31 29 32 38 48 61 
167 155 141 125 109 94 80 69 60 56 55 58 65 75 88 102 118 134 149 162 172 179 182 181 176 168 156 143 127 111 96 82 70 61 56 55 57 64 73 86 
